<svg width="162" height="40" viewBox="0 0 178 40" fill="none" xmlns="http://www.w3.org/2000/svg" style="overflow: visible;">
<style>
@keyframes float {
  0% { transform: translateY(0px); }
  50% { transform: translateY(-5px); }
  100% { transform: translateY(0px); }
}

.floating-tile {
  animation: float 3s ease-in-out infinite;
  transform-box: fill-box;
  transform-origin: center;
}
</style>
<mask id="mask0_622_855" style="mask-type:luminance" maskUnits="userSpaceOnUse" x="7" y="14" width="32" height="23">
<path d="M9.49057 36.4865H22.6864C23.2223 36.4883 23.7495 36.4269 24.2682 36.3024C24.7869 36.177 25.2808 35.9929 25.7499 35.7484C26.219 35.5039 26.648 35.208 27.0371 34.8597C27.4261 34.5115 27.7626 34.1226 28.0468 33.6941L38.6321 17.4701C39.6275 15.9435 38.4337 14.0001 36.5001 14.0001H23.2156C22.6931 13.9974 22.1792 14.0578 21.6729 14.1796C21.1676 14.3014 20.6861 14.4819 20.2284 14.7201C19.7708 14.9583 19.3522 15.247 18.9727 15.5862C18.5932 15.9255 18.2652 16.3044 17.9878 16.723L7.35864 33.021C6.36323 34.5422 7.55791 36.4865 9.49057 36.4865Z" fill="white"/>
</mask>
<g mask="url(#mask0_622_855)">
<path d="M6.99951 13.9974V36.4883H39.0357V13.9974H6.99951Z" fill="#284838"/>
</g>
<mask id="mask1_622_855" style="mask-type:luminance" maskUnits="userSpaceOnUse" x="4" y="2" width="33" height="24">
<path d="M7.08285 25.3735H20.2787C20.8146 25.3753 21.3418 25.3139 21.8605 25.1894C22.3792 25.064 22.8731 24.8799 23.3422 24.6354C23.8113 24.3909 24.2403 24.095 24.6293 23.7467C25.0183 23.3985 25.3549 23.0096 25.639 22.581L36.2243 6.35707C37.2197 4.83049 36.026 2.88708 34.0924 2.88708H20.8079C20.2854 2.88437 19.7715 2.94482 19.2652 3.06663C18.7599 3.18843 18.2784 3.36887 17.8207 3.60706C17.363 3.84525 16.9445 4.13397 16.565 4.47321C16.1855 4.81245 15.8575 5.19139 15.5801 5.61002L4.95092 21.908C3.95551 23.4291 5.15019 25.3735 7.08285 25.3735Z" fill="white"/>
</mask>
<g mask="url(#mask1_622_855)" class="floating-tile">
<path d="M4.5918 2.88437V25.3753H36.628V2.88437H4.5918Z" fill="#042916"/>
</g>
<path d="M155.639 30.5311H146.86L146.898 30.304C149.471 30.304 150.001 28.6013 150.568 25.8013L154.428 7.71484C154.995 4.91484 155.223 3.21214 152.65 3.21214L152.687 2.98511H161.466L161.428 3.21214C158.855 3.21214 158.325 4.91484 157.758 7.71484L153.898 25.8013C153.331 28.6013 153.104 30.304 155.677 30.304L155.639 30.5311Z" fill="#042916"/>
<path d="M141.042 2.53107L144.22 25.6878C144.674 28.8662 145.091 30.1527 146.68 30.304L146.642 30.5311H138.015L138.053 30.304C140.285 30.1527 141.307 29.0554 140.966 26.5581L140.21 20.8824H131.28L129.842 23.4554C127.345 27.9203 126.55 30.0392 129.388 30.304L129.35 30.5311H123.107L123.145 30.304C124.961 30.0013 126.475 27.8067 129.085 23.2662L140.739 2.53107H141.042ZM138.507 7.94188L131.772 19.9743H140.096L138.507 7.94188Z" fill="#042916"/>
<path d="M125.787 27.3149L126.354 27.9203C124.614 29.8122 122.344 30.9851 120.376 30.9851C117.576 30.9851 115.949 29.4338 115.949 26.2176V12.2554H113.981V11.3473L114.511 11.1203C116.365 10.2878 117.463 8.77431 118.56 5.74728H119.014V10.704H126.09L125.56 12.2554H119.014V25.6878C119.014 27.9203 120.035 29.0932 122.003 29.0932C123.517 29.0932 124.841 28.1473 125.787 27.3149Z" fill="#042916"/>
<path d="M105.751 31.2935C103.822 31.2935 101.665 30.8017 100.303 30.0827L100 25.3908H100.454C101.854 28.7584 103.443 30.3098 106.13 30.3098C108.438 30.3098 110.254 29.099 110.254 26.8665C110.254 24.6341 108.703 23.726 106.092 22.326L104.654 21.5692C102.649 20.4719 100.53 19.2233 100.53 16.0827C100.53 12.6395 103.178 10.5584 106.773 10.5584C108.286 10.5584 110.368 10.899 111.805 11.6935V15.553H111.351C110.405 12.753 108.741 11.5422 106.508 11.5422C104.389 11.5422 102.989 12.8287 102.989 14.7206C102.989 17.0287 104.919 18.0503 106.168 18.6935L107.568 19.4503C110.292 20.8881 112.714 22.0611 112.714 25.3908C112.714 28.9854 109.914 31.2935 105.751 31.2935Z" fill="#042916"/>
<path d="M94.9858 7.10945C93.7749 7.10945 92.829 6.1635 92.829 4.99053C92.829 3.81756 93.7749 2.87161 94.9858 2.87161C96.1587 2.87161 97.1047 3.81756 97.1047 4.99053C97.1047 6.1635 96.1587 7.10945 94.9858 7.10945ZM98.5804 30.5311H92.1858V30.077C93.7371 30.077 93.8506 28.7905 93.8506 26.3689V15.6986C93.8506 13.277 93.2074 12.4824 91.9209 12.1419V11.6878L96.6128 10.3257H96.9155V26.3689C96.9155 28.7905 97.029 30.077 98.5804 30.077V30.5311Z" fill="#042916"/>
<path d="M90.1405 10.5581C90.5568 10.5581 91.0865 10.6338 91.6162 10.8608L90.8595 14.1149H90.4811C89.6865 13.5473 88.8162 13.3203 88.1351 13.3203C87 13.3203 86.0162 13.9257 84.9946 15.4392V26.677C84.9946 29.0986 85.1081 30.3851 86.6595 30.3851V30.8392H80.2649V30.3851C81.8162 30.3851 81.9297 29.0986 81.9297 26.677V16.0068C81.9297 13.5851 81.2865 12.7905 80 12.45V11.9959L84.6919 10.6338H84.9946V14.1905C86.5838 11.9959 88.2865 10.5581 90.1405 10.5581Z" fill="#042916"/>
<path d="M76.7917 10.3257V25.8013C76.7917 28.223 77.3971 29.1311 78.7214 29.5094V29.9635L74.6728 30.9851H74.3701L73.8025 27.5419C71.7971 29.5473 69.2998 30.9851 66.8025 30.9851C63.8512 30.9851 61.9971 28.904 61.9971 25.0824V14.677C61.9971 12.2554 61.2782 11.5743 59.9917 11.2338V10.7797L64.7593 10.3257H65.062V24.25C65.062 27.1257 65.9701 28.7905 68.6187 28.7905C70.2836 28.7905 72.0998 27.9202 73.7268 26.6338V14.677C73.7268 12.2554 73.0079 11.5743 71.7214 11.2338V10.7797L76.489 10.3257H76.7917Z" fill="#042916"/>
<path d="M50.3464 36.5851L50.0059 35.8284C52.8059 33.104 53.3734 31.5905 53.3734 27.1256V7.94187C53.3734 5.14187 53.2221 3.43916 50.6491 3.43916V2.98511H59.4275V3.43916C56.8545 3.43916 56.7032 5.14187 56.7032 7.94187V24.704C56.7032 30.6824 55.568 33.6338 50.3464 36.5851Z" fill="#042916"/>
</svg>
